<?xml version="1.0" encoding="UTF-8"?>
<svg viewBox="0 0 800 200" xmlns="http://www.w3.org/2000/svg">
  <!-- TaxOps - Logo Horizontal (Icon + Text) -->
  <defs>
    <style>
      @import url('https://fonts.googleapis.com/css2?family=Montserrat:wght@600;700&display=swap');
      
      .logo-text-tax {
        font-family: 'Montserrat', sans-serif;
        font-size: 72px;
        font-weight: 700;
        fill: #1A1A2E;
        letter-spacing: -1px;
      }
      
      .logo-text-ops {
        font-family: 'Montserrat', sans-serif;
        font-size: 72px;
        font-weight: 700;
        fill: #E05519;
        letter-spacing: -1px;
      }
    </style>
  </defs>

  <!-- Fondo blanco para visualización -->
  <rect width="800" height="200" fill="white"/>

  <!-- ISOTIPO MINIATURA (izquierda) -->
  <g transform="translate(50, 100)">
    <!-- Círculo base del engranaje -->
    <circle cx="0" cy="0" r="60" fill="none" stroke="#E05519" stroke-width="4.5" opacity="0.2"/>
    
    <!-- 8 Dientes simplificados -->
    <g id="gear-teeth">
      <rect x="-7.5" y="-75" width="15" height="22" fill="#E05519" rx="3" transform="rotate(0)"/>
      <rect x="-7.5" y="-75" width="15" height="22" fill="#E05519" rx="3" transform="rotate(45)"/>
      <rect x="-7.5" y="-75" width="15" height="22" fill="#E05519" rx="3" transform="rotate(90)"/>
      <rect x="-7.5" y="-75" width="15" height="22" fill="#E05519" rx="3" transform="rotate(135)"/>
      <rect x="-7.5" y="-75" width="15" height="22" fill="#E05519" rx="3" transform="rotate(180)"/>
      <rect x="-7.5" y="-75" width="15" height="22" fill="#E05519" rx="3" transform="rotate(225)"/>
      <rect x="-7.5" y="-75" width="15" height="22" fill="#E05519" rx="3" transform="rotate(270)"/>
      <rect x="-7.5" y="-75" width="15" height="22" fill="#E05519" rx="3" transform="rotate(315)"/>
    </g>

    <!-- Centro del engranaje -->
    <circle cx="0" cy="0" r="30" fill="white"/>

    <!-- Símbolo interior: % Grid -->
    <!-- Círculos del % -->
    <circle cx="-11" cy="-13" r="8" fill="none" stroke="#1A1A2E" stroke-width="3.5"/>
    <circle cx="11" cy="13" r="8" fill="none" stroke="#1A1A2E" stroke-width="3.5"/>
    <!-- Línea diagonal % -->
    <line x1="-18" y1="18" x2="18" y2="-18" stroke="#1A1A2E" stroke-width="3.5" stroke-linecap="round"/>
    
    <!-- Grid 3x3 -->
    <line x1="-13" y1="-11" x2="-13" y2="11" stroke="#1A1A2E" stroke-width="2" opacity="0.35"/>
    <line x1="0" y1="-11" x2="0" y2="11" stroke="#1A1A2E" stroke-width="2" opacity="0.35"/>
    <line x1="13" y1="-11" x2="13" y2="11" stroke="#1A1A2E" stroke-width="2" opacity="0.35"/>
    
    <line x1="-13" y1="-11" x2="13" y2="-11" stroke="#1A1A2E" stroke-width="2" opacity="0.35"/>
    <line x1="-13" y1="0" x2="13" y2="0" stroke="#1A1A2E" stroke-width="2" opacity="0.35"/>
    <line x1="-13" y1="11" x2="13" y2="11" stroke="#1A1A2E" stroke-width="2" opacity="0.35"/>
  </g>

  <!-- TEXTO: "TaxOps" -->
  <!-- "Tax" en Azul Marino -->
  <text x="180" y="130" class="logo-text-tax">Tax</text>
  
  <!-- "Ops" en Naranja -->
  <text x="380" y="130" class="logo-text-ops">Ops</text>

  <!-- Línea decorativa (opcional) -->
  <line x1="180" y1="155" x2="520" y2="155" stroke="#E05519" stroke-width="2" opacity="0.3"/>
</svg>
