<?xml version="1.0" encoding="UTF-8"?>
<svg viewBox="0 0 512 512" xmlns="http://www.w3.org/2000/svg">
  <!-- TaxOps - Isotipo Monocromo Oscuro (para B&W print, etc.) -->
  
  <!-- Fondo blanco -->
  <rect width="512" height="512" fill="white"/>

  <!-- ISOTIPO: Engranaje + Símbolo % Grid (Monocromo Negro) -->
  <g transform="translate(256, 256)">
    <!-- Círculo base del engranaje -->
    <circle cx="0" cy="0" r="160" fill="none" stroke="#1A1A2E" stroke-width="12" opacity="0.2"/>
    
    <!-- 8 Dientes del engranaje -->
    <rect x="-20" y="-200" width="40" height="60" fill="#1A1A2E" rx="8"/>
    <g transform="rotate(45)">
      <rect x="-20" y="-200" width="40" height="60" fill="#1A1A2E" rx="8"/>
    </g>
    <g transform="rotate(90)">
      <rect x="-20" y="-200" width="40" height="60" fill="#1A1A2E" rx="8"/>
    </g>
    <g transform="rotate(135)">
      <rect x="-20" y="-200" width="40" height="60" fill="#1A1A2E" rx="8"/>
    </g>
    <g transform="rotate(180)">
      <rect x="-20" y="-200" width="40" height="60" fill="#1A1A2E" rx="8"/>
    </g>
    <g transform="rotate(225)">
      <rect x="-20" y="-200" width="40" height="60" fill="#1A1A2E" rx="8"/>
    </g>
    <g transform="rotate(270)">
      <rect x="-20" y="-200" width="40" height="60" fill="#1A1A2E" rx="8"/>
    </g>
    <g transform="rotate(315)">
      <rect x="-20" y="-200" width="40" height="60" fill="#1A1A2E" rx="8"/>
    </g>

    <!-- Centro del engranaje -->
    <circle cx="0" cy="0" r="80" fill="white"/>

    <!-- SÍMBOLO INTERIOR: % Grid (Negro) -->
    <circle cx="-30" cy="-35" r="22" fill="none" stroke="#1A1A2E" stroke-width="10"/>
    <circle cx="30" cy="35" r="22" fill="none" stroke="#1A1A2E" stroke-width="10"/>
    <line x1="-48" y1="48" x2="48" y2="-48" stroke="#1A1A2E" stroke-width="10" stroke-linecap="round"/>

    <!-- Grid 3x3 -->
    <line x1="-35" y1="-30" x2="-35" y2="30" stroke="#1A1A2E" stroke-width="6" opacity="0.4"/>
    <line x1="0" y1="-30" x2="0" y2="30" stroke="#1A1A2E" stroke-width="6" opacity="0.4"/>
    <line x1="35" y1="-30" x2="35" y2="30" stroke="#1A1A2E" stroke-width="6" opacity="0.4"/>
    
    <line x1="-35" y1="-30" x2="35" y2="-30" stroke="#1A1A2E" stroke-width="6" opacity="0.4"/>
    <line x1="-35" y1="0" x2="35" y2="0" stroke="#1A1A2E" stroke-width="6" opacity="0.4"/>
    <line x1="-35" y1="30" x2="35" y2="30" stroke="#1A1A2E" stroke-width="6" opacity="0.4"/>
  </g>
</svg>
